<?xml version="1.0" encoding="UTF-8"?>
<svg id="Layer_2" data-name="Layer 2" xmlns="http://www.w3.org/2000/svg" xmlns:xlink="http://www.w3.org/1999/xlink" viewBox="0 0 85.04 25">
  <defs>
    <style>
      .cls-1, .cls-2 {
        fill: #3c4a51;
      }

      .cls-1, .cls-3, .cls-4 {
        stroke-width: 0px;
      }

      .cls-2 {
        font-family: ArialMT, Arial;
        font-size: 14.4px;
      }

      .cls-5 {
        clip-path: url(#clippath);
      }

      .cls-3 {
        fill: none;
      }

      .cls-4 {

        fill: #25363d;
       
      }
    </style>
    <clipPath id="clippath">
      <rect class="cls-3" width="25" height="25"/>
    </clipPath>
  </defs>
  <g id="Layer_1-2" data-name="Layer 1">
    <g>
      <g>
        <g class="cls-5">
          <path class="cls-1" d="M21.88,1.56H3.12c-.86,0-1.56.71-1.56,1.58v18.72c0,.87.7,1.58,1.56,1.58h18.75c.86,0,1.56-.71,1.56-1.58V3.14c0-.87-.7-1.58-1.56-1.58h0Z"/>
        </g>
        <text class="cls-2" transform="translate(33 18)"><tspan x="0" y="0">Tableau</tspan></text>
      </g>
      <g id="fhQN1G.tif">
        <g>
          <path class="cls-4" d="M12.8,2.98c0,.51.01,1.02,0,1.53,0,.18.04.25.23.24.39-.01.78,0,1.17,0,.14,0,.19.05.19.19-.01.39.06.35-.34.35-.35,0-.71,0-1.06,0-.14,0-.19.05-.19.19,0,.46,0,.91,0,1.37,0,.17-.06.22-.22.22-.41-.01-.36.04-.36-.37,0-.4,0-.81,0-1.21,0-.15-.05-.2-.2-.2-.4,0-.79,0-1.19,0-.15,0-.22-.04-.21-.2.01-.38-.03-.34.34-.34.35,0,.71,0,1.06,0,.13,0,.2-.04.19-.18,0-.53,0-1.06,0-1.59h.58Z"/>
          <path class="cls-4" d="M2.85,12.18c.47,0,.94,0,1.41,0,.16,0,.21-.05.21-.21,0-.44,0-.88,0-1.32,0-.15.04-.22.2-.21.4.01.36-.03.36.36,0,.38,0,.77,0,1.15,0,.16.05.22.22.22.4,0,.81,0,1.21,0,.14,0,.19.05.19.19,0,.36,0,.36-.34.36-.34,0-.69,0-1.03,0-.23,0-.24.01-.24.25,0,.42,0,.84,0,1.26,0,.19-.06.24-.24.23-.36-.02-.32.05-.32-.33,0-.4,0-.79,0-1.19,0-.16-.05-.23-.22-.22-.41.02-.82.02-1.22.02-.06,0-.12-.02-.18-.02,0-.18,0-.36,0-.54Z"/>
          <path class="cls-4" d="M13.03,10.49c0,.41,0,.83,0,1.24,0,.15.04.21.2.21.75,0,1.49,0,2.24,0,.16,0,.23.04.22.21-.01.19,0,.38,0,.58q0,.25-.24.25c-.73,0-1.45,0-2.18,0-.19,0-.23.06-.23.24,0,.81,0,1.62,0,2.43,0,.18-.05.23-.23.22-.2-.01-.41-.01-.61,0-.16,0-.22-.04-.22-.21,0-.76,0-1.53,0-2.29,0-.05,0-.1,0-.14,0-.24,0-.24-.24-.24-.72,0-1.44,0-2.16,0q-.24,0-.25-.25c0-.2,0-.4,0-.59,0-.15.05-.2.2-.19.74,0,1.48,0,2.22,0,.18,0,.24-.05.24-.23,0-.81,0-1.62,0-2.43,0-.17.05-.23.22-.22.21.01.42.01.63,0,.15,0,.2.04.2.19,0,.41,0,.83,0,1.24Z"/>
          <path class="cls-4" d="M17.95,18.74c0,.37,0,.74,0,1.12,0,.12-.04.17-.16.17-.19,0-.38-.01-.58,0-.15,0-.18-.05-.18-.19,0-.73,0-1.45,0-2.18,0-.17-.05-.22-.22-.22-.65.01-1.31,0-1.96,0-.14,0-.21-.03-.2-.19.01-.14,0-.29,0-.43,0-.14.04-.19.18-.18.65,0,1.31,0,1.96,0,.18,0,.24-.04.23-.23-.01-.71,0-1.43,0-2.14,0-.18.06-.23.23-.22.17.01.34.01.5,0,.15,0,.2.04.2.19,0,.72,0,1.44,0,2.16,0,.18.04.24.23.23.64-.01,1.29,0,1.93,0,.18,0,.23.06.22.23-.01.13-.01.26,0,.4.01.14-.05.18-.19.18-.66,0-1.32,0-1.98,0-.16,0-.21.04-.2.2.01.37,0,.73,0,1.1Z"/>
          <path class="cls-4" d="M17.03,6.12c0-.37,0-.73,0-1.1,0-.16.05-.21.21-.2.17.01.35.01.52,0,.15,0,.2.05.2.2,0,.71,0,1.42,0,2.13q0,.27.28.27c.62,0,1.24,0,1.86,0,.17,0,.25.04.23.22-.02.18.08.42-.04.54-.11.11-.34.03-.52.03-.53,0-1.06,0-1.59,0-.17,0-.22.06-.21.22,0,.71,0,1.42,0,2.13,0,.17-.04.24-.22.23-.17-.01-.35-.01-.52,0-.15,0-.19-.05-.18-.19,0-.71,0-1.42,0-2.13,0-.25,0-.25-.25-.25-.64,0-1.29,0-1.93,0-.16,0-.22-.05-.2-.21,0-.12.01-.24,0-.36-.01-.17.04-.23.22-.23.64,0,1.29,0,1.93,0,.19,0,.24-.06.23-.24-.01-.35,0-.71,0-1.06Z"/>
          <path class="cls-4" d="M7.07,15.35c0-.37,0-.73,0-1.1,0-.15.05-.2.2-.19.17.01.35.01.52,0,.17-.01.2.05.2.21,0,.72,0,1.44,0,2.16,0,.18.05.22.22.22.65,0,1.31,0,1.97,0,.15,0,.2.05.19.19-.01.13-.01.27,0,.4.01.16-.04.22-.21.21-.65-.01-1.3,0-1.95,0-.19,0-.23.06-.23.24,0,.72,0,1.44,0,2.16,0,.15-.05.2-.2.19-.18-.01-.36-.01-.54,0-.15,0-.18-.05-.18-.19,0-.73,0-1.47,0-2.2,0-.16-.04-.2-.2-.2-.67,0-1.33,0-2,0-.14,0-.18-.04-.17-.18,0-.14.01-.28,0-.41-.01-.16.03-.22.21-.22.65.01,1.31,0,1.97,0,.16,0,.21-.04.21-.2-.01-.37,0-.73,0-1.1Z"/>
          <path class="cls-4" d="M7.1,6.12c0-.37,0-.75,0-1.12,0-.14.04-.2.19-.19.15,0,.3.01.45,0,.17-.01.23.04.23.22,0,.71,0,1.42,0,2.13,0,.25,0,.25.25.25.62,0,1.25,0,1.87,0q.27,0,.27.28c0,.1,0,.2,0,.31.01.15-.05.19-.19.18-.66,0-1.32,0-1.98,0-.17,0-.23.05-.22.23,0,.71,0,1.43,0,2.14,0,.17-.05.24-.22.22-.14-.01-.28-.01-.41,0-.17.02-.23-.04-.23-.22,0-.7,0-1.41,0-2.11q0-.26-.27-.26c-.64,0-1.27,0-1.91,0-.19,0-.23-.06-.23-.24,0-.53,0-.53.54-.53.56,0,1.12,0,1.68,0,.15,0,.2-.05.2-.2,0-.37,0-.73,0-1.1Z"/>
          <path class="cls-4" d="M12.91,21.14c0,.24,0,.48,0,.72,0,.12-.04.16-.16.16-.15,0-.3,0-.45,0-.13,0-.16-.05-.16-.17,0-.46,0-.93,0-1.39q0-.24-.25-.24c-.4,0-.79,0-1.19,0-.13,0-.17-.04-.18-.18,0-.53-.01-.53.52-.53.31,0,.61,0,.92,0,.13,0,.18-.04.18-.18,0-.47,0-.94,0-1.41,0-.17.04-.25.22-.23.18.02.4-.08.52.05.11.11.03.33.03.51,0,.34.01.69,0,1.03,0,.19.06.23.24.23.4-.01.79,0,1.19,0,.15,0,.2.04.2.19,0,.52,0,.52-.5.52-.32,0-.64,0-.96,0-.13,0-.17.04-.17.17,0,.25,0,.5,0,.76h0Z"/>
          <path class="cls-4" d="M19.76,11.21c0-.24,0-.48,0-.72,0-.15.05-.19.19-.18.14,0,.28,0,.41,0,.14,0,.18.05.18.18,0,.46,0,.93,0,1.39,0,.23,0,.23.24.23.39,0,.78,0,1.17,0,.14,0,.2.03.2.19,0,.51,0,.51-.51.51-.3,0-.6,0-.9,0-.16,0-.21.04-.21.2,0,.46,0,.93,0,1.39,0,.17-.06.22-.22.21-.13-.01-.26,0-.4,0-.13,0-.17-.05-.17-.17,0-.48,0-.96,0-1.44,0-.14-.05-.19-.19-.19-.41,0-.83,0-1.24,0-.14,0-.19-.05-.19-.19,0-.51,0-.51.5-.51.31,0,.62,0,.94,0,.13,0,.18-.05.18-.18,0-.24,0-.48,0-.72Z"/>
        </g>
      </g>
    </g>
  </g>
</svg>